<svg xmlns="http://www.w3.org/2000/svg" viewBox="0 0 32 32" fill="none">
  <circle cx="16" cy="16" r="16" fill="#2775CA"/>
  <path d="M20.5 18.5c0-2.1-1.3-2.8-3.8-3.1-1.8-.2-2.2-.7-2.2-1.5s.6-1.3 1.8-1.3c1.1 0 1.7.4 2 1.3.1.2.2.3.4.3h1c.2 0 .4-.2.3-.4-.3-1.3-1.1-2.3-2.5-2.6V9.8c0-.2-.2-.4-.4-.4h-.9c-.2 0-.4.2-.4.4v1.3c-1.8.3-2.9 1.4-2.9 2.8 0 2 1.2 2.7 3.8 3.1 1.6.3 2.2.6 2.2 1.5 0 .9-.8 1.5-1.9 1.5-1.5 0-2-.6-2.2-1.5-.1-.2-.2-.3-.4-.3h-1.1c-.2 0-.4.2-.3.4.3 1.5 1.3 2.6 3 2.9v1.3c0 .2.2.4.4.4h.9c.2 0 .4-.2.4-.4V21c1.8-.3 3-1.4 3-3z" fill="white"/>
</svg>
